<svg xmlns="http://www.w3.org/2000/svg" xmlns:xlink="http://www.w3.org/1999/xlink" width="1080" zoomAndPan="magnify" viewBox="0 0 810 809.999993" height="1080" preserveAspectRatio="xMidYMid meet" version="1.0"><defs><g/><clipPath id="66617957bc"><path d="M 199.085938 477.503906 L 405 477.503906 L 405 489.449219 L 199.085938 489.449219 Z M 199.085938 477.503906 " clip-rule="nonzero"/></clipPath></defs><g fill="#2e2e2e" fill-opacity="1"><g transform="translate(36.482836, 443.257176)"><g><path d="M 110.71875 -36.234375 C 110.71875 -30.972656 109.4375 -25.976562 106.875 -21.25 C 104.175781 -16.394531 100.394531 -12.210938 95.53125 -8.703125 C 91.082031 -5.328125 86.023438 -2.765625 80.359375 -1.015625 C 74.554688 0.742188 68.550781 1.625 62.34375 1.625 C 49.925781 1.625 39.601562 -1.207031 31.375 -6.875 C 23.007812 -12.414062 17.546875 -19.234375 14.984375 -27.328125 L 30.765625 -36.234375 C 30.765625 -32.585938 32.25 -29.144531 35.21875 -25.90625 C 38.050781 -22.664062 41.894531 -20.101562 46.75 -18.21875 C 51.613281 -16.195312 56.8125 -15.1875 62.34375 -15.1875 C 67.875 -15.1875 73.066406 -16.195312 77.921875 -18.21875 C 82.785156 -20.101562 86.632812 -22.664062 89.46875 -25.90625 C 92.300781 -29.007812 93.71875 -32.453125 93.71875 -36.234375 C 93.71875 -39.335938 92.703125 -42.375 90.671875 -45.34375 C 88.648438 -48.175781 85.75 -50.601562 81.96875 -52.625 C 78.195312 -54.644531 71.25 -56.265625 61.125 -57.484375 C 49.789062 -58.566406 41.425781 -60.523438 36.03125 -63.359375 C 29.144531 -66.585938 23.742188 -71.109375 19.828125 -76.921875 C 15.785156 -82.585938 13.765625 -88.722656 13.765625 -95.328125 C 13.765625 -100.597656 15.113281 -105.660156 17.8125 -110.515625 C 20.375 -115.234375 24.015625 -119.347656 28.734375 -122.859375 C 38.316406 -129.742188 49.519531 -133.1875 62.34375 -133.1875 C 68.550781 -133.1875 74.488281 -132.304688 80.15625 -130.546875 C 85.820312 -128.796875 90.945312 -126.234375 95.53125 -122.859375 C 102.28125 -117.734375 106.9375 -111.523438 109.5 -104.234375 L 93.71875 -95.328125 C 93.71875 -98.972656 92.300781 -102.414062 89.46875 -105.65625 C 86.632812 -108.894531 82.785156 -111.457031 77.921875 -113.34375 C 72.929688 -115.238281 67.738281 -116.1875 62.34375 -116.1875 C 56.675781 -116.1875 51.410156 -115.238281 46.546875 -113.34375 C 41.691406 -111.457031 37.847656 -108.960938 35.015625 -105.859375 C 32.179688 -102.617188 30.765625 -99.109375 30.765625 -95.328125 C 30.765625 -92.085938 31.976562 -88.914062 34.40625 -85.8125 C 36.832031 -82.582031 39.867188 -80.15625 43.515625 -78.53125 C 45.804688 -77.457031 49.113281 -76.515625 53.4375 -75.703125 C 57.75 -74.890625 61.054688 -74.347656 63.359375 -74.078125 C 69.691406 -73.265625 74.882812 -72.390625 78.9375 -71.453125 C 82.988281 -70.503906 86.703125 -69.15625 90.078125 -67.40625 C 96.273438 -64.4375 101.265625 -60.117188 105.046875 -54.453125 C 108.828125 -48.648438 110.71875 -42.578125 110.71875 -36.234375 Z M 110.71875 -36.234375 "/></g></g></g><g fill="#2e2e2e" fill-opacity="1"><g transform="translate(144.362691, 443.257176)"><g><path d="M 34.609375 -57.484375 L 34.609375 0 L 17.40625 0 L 17.40625 -131.765625 L 34.609375 -131.765625 L 34.609375 -74.484375 L 98.984375 -74.484375 L 98.984375 -131.765625 L 115.984375 -131.765625 L 115.984375 0 L 99.171875 0 L 98.984375 -57.484375 Z M 34.609375 -57.484375 "/></g></g></g><g fill="#2e2e2e" fill-opacity="1"><g transform="translate(260.136267, 443.257176)"><g><path d="M 133.796875 -32.390625 C 127.722656 -21.992188 119.625 -13.828125 109.5 -7.890625 C 99.25 -1.816406 88.117188 1.21875 76.109375 1.21875 C 63.960938 1.21875 52.828125 -1.816406 42.703125 -7.890625 C 32.453125 -13.828125 24.359375 -21.992188 18.421875 -32.390625 C 12.484375 -42.640625 9.515625 -53.835938 9.515625 -65.984375 C 9.515625 -77.992188 12.484375 -89.191406 18.421875 -99.578125 C 24.492188 -109.835938 32.65625 -118.003906 42.90625 -124.078125 C 53.03125 -130.015625 64.097656 -132.984375 76.109375 -132.984375 C 87.984375 -132.984375 99.113281 -130.015625 109.5 -124.078125 C 119.757812 -118.003906 127.859375 -109.835938 133.796875 -99.578125 C 139.734375 -89.191406 142.703125 -77.992188 142.703125 -65.984375 C 142.703125 -53.972656 139.734375 -42.773438 133.796875 -32.390625 Z M 119.21875 -91.078125 C 114.757812 -98.773438 108.6875 -104.914062 101 -109.5 C 93.3125 -113.957031 85.015625 -116.1875 76.109375 -116.1875 C 67.066406 -116.1875 58.765625 -113.957031 51.203125 -109.5 C 43.515625 -104.914062 37.445312 -98.773438 33 -91.078125 C 28.539062 -83.390625 26.3125 -75.023438 26.3125 -65.984375 C 26.3125 -56.804688 28.539062 -48.375 33 -40.6875 C 37.445312 -32.988281 43.515625 -26.914062 51.203125 -22.46875 C 58.898438 -17.875 67.203125 -15.578125 76.109375 -15.578125 C 85.285156 -15.578125 93.648438 -17.875 101.203125 -22.46875 C 108.890625 -26.914062 114.960938 -32.988281 119.421875 -40.6875 C 123.734375 -48.375 125.890625 -56.804688 125.890625 -65.984375 C 125.890625 -75.023438 123.664062 -83.390625 119.21875 -91.078125 Z M 119.21875 -91.078125 "/></g></g></g><g fill="#2e2e2e" fill-opacity="1"><g transform="translate(394.733203, 443.257176)"><g><path d="M 17.203125 0 L 17.203125 -131.765625 L 65.375 -131.765625 C 71.175781 -131.765625 76.773438 -130.820312 82.171875 -128.9375 C 87.441406 -127.039062 92.097656 -124.34375 96.140625 -120.84375 C 100.460938 -117.195312 103.835938 -112.941406 106.265625 -108.078125 C 108.554688 -103.222656 109.703125 -98.164062 109.703125 -92.90625 C 109.703125 -87.507812 108.554688 -82.445312 106.265625 -77.71875 C 103.835938 -72.863281 100.460938 -68.546875 96.140625 -64.765625 C 92.097656 -61.253906 87.441406 -58.554688 82.171875 -56.671875 C 76.773438 -54.648438 71.175781 -53.640625 65.375 -53.640625 L 34.40625 -53.640625 L 34.40625 0 Z M 34.40625 -70.640625 L 65.375 -70.640625 C 70.363281 -70.640625 74.953125 -71.648438 79.140625 -73.671875 C 83.328125 -75.703125 86.703125 -78.398438 89.265625 -81.765625 C 91.691406 -85.140625 92.90625 -88.851562 92.90625 -92.90625 C 92.90625 -96.820312 91.691406 -100.460938 89.265625 -103.828125 C 86.703125 -107.203125 83.328125 -109.90625 79.140625 -111.9375 C 74.816406 -113.820312 70.226562 -114.765625 65.375 -114.765625 L 34 -114.765625 Z M 34.40625 -70.640625 "/></g></g></g><g fill="#2e2e2e" fill-opacity="1"><g transform="translate(498.362608, 443.257176)"><g><path d="M 17.203125 0 L 17.203125 -131.765625 L 65.375 -131.765625 C 71.175781 -131.765625 76.773438 -130.820312 82.171875 -128.9375 C 87.441406 -127.039062 92.097656 -124.34375 96.140625 -120.84375 C 100.460938 -117.195312 103.835938 -112.941406 106.265625 -108.078125 C 108.554688 -103.222656 109.703125 -98.164062 109.703125 -92.90625 C 109.703125 -87.507812 108.554688 -82.445312 106.265625 -77.71875 C 103.835938 -72.863281 100.460938 -68.546875 96.140625 -64.765625 C 92.097656 -61.253906 87.441406 -58.554688 82.171875 -56.671875 C 76.773438 -54.648438 71.175781 -53.640625 65.375 -53.640625 L 34.40625 -53.640625 L 34.40625 0 Z M 34.40625 -70.640625 L 65.375 -70.640625 C 70.363281 -70.640625 74.953125 -71.648438 79.140625 -73.671875 C 83.328125 -75.703125 86.703125 -78.398438 89.265625 -81.765625 C 91.691406 -85.140625 92.90625 -88.851562 92.90625 -92.90625 C 92.90625 -96.820312 91.691406 -100.460938 89.265625 -103.828125 C 86.703125 -107.203125 83.328125 -109.90625 79.140625 -111.9375 C 74.816406 -113.820312 70.226562 -114.765625 65.375 -114.765625 L 34 -114.765625 Z M 34.40625 -70.640625 "/></g></g></g><g fill="#2e2e2e" fill-opacity="1"><g transform="translate(601.992058, 443.257176)"><g><path d="M 19.640625 -131.765625 L 36.640625 -131.765625 L 36.640625 0 L 19.640625 0 Z M 19.640625 -131.765625 "/></g></g></g><g fill="#2e2e2e" fill-opacity="1"><g transform="translate(640.650381, 443.257176)"><g><path d="M 133.796875 -32.390625 C 127.722656 -21.992188 119.625 -13.828125 109.5 -7.890625 C 99.25 -1.816406 88.117188 1.21875 76.109375 1.21875 C 63.960938 1.21875 52.828125 -1.816406 42.703125 -7.890625 C 32.453125 -13.828125 24.359375 -21.992188 18.421875 -32.390625 C 12.484375 -42.640625 9.515625 -53.835938 9.515625 -65.984375 C 9.515625 -77.992188 12.484375 -89.191406 18.421875 -99.578125 C 24.492188 -109.835938 32.65625 -118.003906 42.90625 -124.078125 C 53.03125 -130.015625 64.097656 -132.984375 76.109375 -132.984375 C 87.984375 -132.984375 99.113281 -130.015625 109.5 -124.078125 C 119.757812 -118.003906 127.859375 -109.835938 133.796875 -99.578125 C 139.734375 -89.191406 142.703125 -77.992188 142.703125 -65.984375 C 142.703125 -53.972656 139.734375 -42.773438 133.796875 -32.390625 Z M 119.21875 -91.078125 C 114.757812 -98.773438 108.6875 -104.914062 101 -109.5 C 93.3125 -113.957031 85.015625 -116.1875 76.109375 -116.1875 C 67.066406 -116.1875 58.765625 -113.957031 51.203125 -109.5 C 43.515625 -104.914062 37.445312 -98.773438 33 -91.078125 C 28.539062 -83.390625 26.3125 -75.023438 26.3125 -65.984375 C 26.3125 -56.804688 28.539062 -48.375 33 -40.6875 C 37.445312 -32.988281 43.515625 -26.914062 51.203125 -22.46875 C 58.898438 -17.875 67.203125 -15.578125 76.109375 -15.578125 C 85.285156 -15.578125 93.648438 -17.875 101.203125 -22.46875 C 108.890625 -26.914062 114.960938 -32.988281 119.421875 -40.6875 C 123.734375 -48.375 125.890625 -56.804688 125.890625 -65.984375 C 125.890625 -75.023438 123.664062 -83.390625 119.21875 -91.078125 Z M 119.21875 -91.078125 "/></g></g></g><g clip-path="url(#66617957bc)"><path fill="#2e2e2e" d="M 199.085938 477.503906 L 404.984375 477.503906 L 404.984375 489.449219 L 199.085938 489.449219 Z M 199.085938 477.503906 " fill-opacity="1" fill-rule="nonzero"/></g><g fill="#2e2e2e" fill-opacity="1"><g transform="translate(451.796526, 489.179899)"><g><path d="M 0.15625 0 L 4.796875 -11.703125 L 7.40625 -11.703125 L 12.046875 0 L 9.21875 0 L 8.421875 -2.015625 L 3.78125 -2.015625 L 3 0 Z M 4.46875 -4.109375 L 7.75 -4.109375 L 6.109375 -8.390625 Z M 4.46875 -4.109375 "/></g></g></g><g fill="#2e2e2e" fill-opacity="1"><g transform="translate(468.058151, 489.179899)"><g><path d="M 1.40625 0 L 1.40625 -11.703125 L 4.0625 -11.703125 L 4.0625 -2.484375 L 9.171875 -2.484375 L 9.171875 0 Z M 1.40625 0 "/></g></g></g><g fill="#2e2e2e" fill-opacity="1"><g transform="translate(481.746297, 489.179899)"><g><path d="M 1.40625 0 L 1.40625 -11.703125 L 4.0625 -11.703125 L 4.0625 -2.484375 L 9.171875 -2.484375 L 9.171875 0 Z M 1.40625 0 "/></g></g></g><g fill="#2e2e2e" fill-opacity="1"><g transform="translate(495.434442, 489.179899)"><g/></g></g><g fill="#2e2e2e" fill-opacity="1"><g transform="translate(503.424175, 489.179899)"><g><path d="M 1.40625 0 L 1.40625 -11.703125 L 4.0625 -11.703125 L 4.0625 0 Z M 1.40625 0 "/></g></g></g><g fill="#2e2e2e" fill-opacity="1"><g transform="translate(512.951318, 489.179899)"><g><path d="M 1.40625 0 L 1.40625 -11.703125 L 3.65625 -11.703125 L 8.828125 -4.578125 L 8.828125 -11.703125 L 11.46875 -11.703125 L 11.46875 0 L 9.21875 0 L 4.046875 -7.171875 L 4.046875 0 Z M 1.40625 0 "/></g></g></g><g fill="#2e2e2e" fill-opacity="1"><g transform="translate(529.881368, 489.179899)"><g/></g></g><g fill="#2e2e2e" fill-opacity="1"><g transform="translate(537.871101, 489.179899)"><g><path d="M 6.953125 0.234375 C 5.734375 0.234375 4.65625 -0.0234375 3.71875 -0.546875 C 2.78125 -1.066406 2.046875 -1.78125 1.515625 -2.6875 C 0.984375 -3.601562 0.71875 -4.660156 0.71875 -5.859375 C 0.71875 -7.046875 0.984375 -8.09375 1.515625 -9 C 2.046875 -9.914062 2.78125 -10.632812 3.71875 -11.15625 C 4.65625 -11.675781 5.734375 -11.9375 6.953125 -11.9375 C 8.179688 -11.9375 9.265625 -11.675781 10.203125 -11.15625 C 11.140625 -10.632812 11.875 -9.914062 12.40625 -9 C 12.9375 -8.09375 13.203125 -7.046875 13.203125 -5.859375 C 13.203125 -4.660156 12.9375 -3.601562 12.40625 -2.6875 C 11.875 -1.78125 11.140625 -1.066406 10.203125 -0.546875 C 9.265625 -0.0234375 8.179688 0.234375 6.953125 0.234375 Z M 3.421875 -5.859375 C 3.421875 -5.148438 3.570312 -4.523438 3.875 -3.984375 C 4.175781 -3.453125 4.59375 -3.035156 5.125 -2.734375 C 5.65625 -2.441406 6.265625 -2.296875 6.953125 -2.296875 C 7.660156 -2.296875 8.273438 -2.441406 8.796875 -2.734375 C 9.328125 -3.035156 9.738281 -3.453125 10.03125 -3.984375 C 10.332031 -4.523438 10.484375 -5.148438 10.484375 -5.859375 C 10.484375 -6.554688 10.332031 -7.171875 10.03125 -7.703125 C 9.738281 -8.242188 9.328125 -8.660156 8.796875 -8.953125 C 8.273438 -9.253906 7.660156 -9.40625 6.953125 -9.40625 C 6.265625 -9.40625 5.65625 -9.253906 5.125 -8.953125 C 4.59375 -8.660156 4.175781 -8.242188 3.875 -7.703125 C 3.570312 -7.171875 3.421875 -6.554688 3.421875 -5.859375 Z M 3.421875 -5.859375 "/></g></g></g><g fill="#2e2e2e" fill-opacity="1"><g transform="translate(555.853939, 489.179899)"><g><path d="M 1.40625 0 L 1.40625 -11.703125 L 3.65625 -11.703125 L 8.828125 -4.578125 L 8.828125 -11.703125 L 11.46875 -11.703125 L 11.46875 0 L 9.21875 0 L 4.046875 -7.171875 L 4.046875 0 Z M 1.40625 0 "/></g></g></g><g fill="#2e2e2e" fill-opacity="1"><g transform="translate(572.783984, 489.179899)"><g><path d="M 1.40625 0 L 1.40625 -11.703125 L 9.09375 -11.703125 L 9.09375 -9.46875 L 4.046875 -9.46875 L 4.046875 -7.03125 L 8.640625 -7.03125 L 8.640625 -4.8125 L 4.046875 -4.8125 L 4.046875 -2.25 L 9.28125 -2.25 L 9.28125 0 Z M 1.40625 0 "/></g></g></g><g fill="#2e2e2e" fill-opacity="1"><g transform="translate(282.414993, 520.243002)"><g><path d="M 0.46875 0 L 2.546875 -10.375 L 9.375 -10.375 L 8.984375 -8.390625 L 4.53125 -8.390625 L 4.109375 -6.25 L 8.15625 -6.25 L 7.75 -4.265625 L 3.71875 -4.265625 L 3.265625 -2 L 7.859375 -2 L 7.453125 0 Z M 0.46875 0 "/></g></g></g><g fill="#2e2e2e" fill-opacity="1"><g transform="translate(291.413288, 520.243002)"><g><path d="M 4.203125 0.203125 C 3.316406 0.203125 2.578125 0.0625 1.984375 -0.21875 C 1.390625 -0.5 0.96875 -0.898438 0.71875 -1.421875 C 0.46875 -1.941406 0.410156 -2.566406 0.546875 -3.296875 L 2.828125 -3.296875 C 2.753906 -2.804688 2.847656 -2.421875 3.109375 -2.140625 C 3.367188 -1.867188 3.785156 -1.734375 4.359375 -1.734375 C 4.878906 -1.734375 5.300781 -1.832031 5.625 -2.03125 C 5.945312 -2.226562 6.144531 -2.488281 6.21875 -2.8125 C 6.289062 -3.1875 6.195312 -3.492188 5.9375 -3.734375 C 5.6875 -3.984375 5.207031 -4.179688 4.5 -4.328125 C 3.363281 -4.566406 2.523438 -4.96875 1.984375 -5.53125 C 1.453125 -6.101562 1.28125 -6.851562 1.46875 -7.78125 C 1.632812 -8.632812 2.082031 -9.316406 2.8125 -9.828125 C 3.550781 -10.335938 4.519531 -10.59375 5.71875 -10.59375 C 6.988281 -10.59375 7.941406 -10.28125 8.578125 -9.65625 C 9.210938 -9.039062 9.453125 -8.21875 9.296875 -7.1875 L 7.015625 -7.1875 C 7.085938 -7.625 7.003906 -7.976562 6.765625 -8.25 C 6.535156 -8.53125 6.128906 -8.671875 5.546875 -8.671875 C 5.054688 -8.671875 4.65625 -8.570312 4.34375 -8.375 C 4.039062 -8.175781 3.859375 -7.925781 3.796875 -7.625 C 3.710938 -7.238281 3.804688 -6.929688 4.078125 -6.703125 C 4.347656 -6.472656 4.84375 -6.273438 5.5625 -6.109375 C 6.726562 -5.847656 7.566406 -5.425781 8.078125 -4.84375 C 8.585938 -4.257812 8.753906 -3.535156 8.578125 -2.671875 C 8.410156 -1.785156 7.945312 -1.082031 7.1875 -0.5625 C 6.4375 -0.0507812 5.441406 0.203125 4.203125 0.203125 Z M 4.203125 0.203125 "/></g></g></g><g fill="#2e2e2e" fill-opacity="1"><g transform="translate(300.900783, 520.243002)"><g><path d="M 2.9375 0 L 4.5625 -8.171875 L 1.3125 -8.171875 L 1.75 -10.375 L 10.671875 -10.375 L 10.234375 -8.171875 L 6.96875 -8.171875 L 5.34375 0 Z M 2.9375 0 "/></g></g></g><g fill="#2e2e2e" fill-opacity="1"><g transform="translate(310.729231, 520.243002)"><g><path d="M 0.46875 0 L 2.546875 -10.375 L 6.578125 -10.375 C 7.648438 -10.375 8.554688 -10.132812 9.296875 -9.65625 C 10.035156 -9.1875 10.5625 -8.539062 10.875 -7.71875 C 11.1875 -6.90625 11.238281 -5.96875 11.03125 -4.90625 C 10.832031 -3.90625 10.4375 -3.035156 9.84375 -2.296875 C 9.257812 -1.566406 8.519531 -1 7.625 -0.59375 C 6.726562 -0.195312 5.726562 0 4.625 0 Z M 3.296875 -2.171875 L 4.890625 -2.171875 C 5.515625 -2.171875 6.085938 -2.296875 6.609375 -2.546875 C 7.140625 -2.804688 7.582031 -3.164062 7.9375 -3.625 C 8.289062 -4.082031 8.523438 -4.617188 8.640625 -5.234375 C 8.828125 -6.140625 8.695312 -6.863281 8.25 -7.40625 C 7.8125 -7.945312 7.128906 -8.21875 6.203125 -8.21875 L 4.5 -8.21875 Z M 3.296875 -2.171875 "/></g></g></g><g fill="#2e2e2e" fill-opacity="1"><g transform="translate(282.743118, 534.493001)"><g><path d="M 0 0 L 0.3125 -1.65625 L 5.296875 -5.34375 C 5.742188 -5.675781 6.082031 -5.988281 6.3125 -6.28125 C 6.539062 -6.570312 6.6875 -6.867188 6.75 -7.171875 C 6.832031 -7.597656 6.765625 -7.9375 6.546875 -8.1875 C 6.335938 -8.445312 6.003906 -8.578125 5.546875 -8.578125 C 5.054688 -8.578125 4.644531 -8.425781 4.3125 -8.125 C 3.988281 -7.832031 3.765625 -7.421875 3.640625 -6.890625 L 1.4375 -6.890625 C 1.695312 -8.066406 2.195312 -8.976562 2.9375 -9.625 C 3.675781 -10.269531 4.609375 -10.59375 5.734375 -10.59375 C 6.515625 -10.59375 7.175781 -10.441406 7.71875 -10.140625 C 8.257812 -9.835938 8.644531 -9.421875 8.875 -8.890625 C 9.101562 -8.367188 9.148438 -7.769531 9.015625 -7.09375 C 8.890625 -6.488281 8.625 -5.914062 8.21875 -5.375 C 7.820312 -4.84375 7.234375 -4.296875 6.453125 -3.734375 L 4.234375 -2.0625 L 8.203125 -2.0625 L 7.78125 0 Z M 0 0 "/></g></g></g><g fill="#2e2e2e" fill-opacity="1"><g transform="translate(292.304737, 534.493001)"><g><path d="M 4.578125 0.203125 C 3.640625 0.203125 2.863281 -0.0195312 2.25 -0.46875 C 1.632812 -0.914062 1.21875 -1.554688 1 -2.390625 C 0.789062 -3.222656 0.796875 -4.21875 1.015625 -5.375 C 1.359375 -7.007812 1.988281 -8.285156 2.90625 -9.203125 C 3.832031 -10.128906 4.976562 -10.59375 6.34375 -10.59375 C 7.28125 -10.59375 8.054688 -10.363281 8.671875 -9.90625 C 9.285156 -9.457031 9.703125 -8.816406 9.921875 -7.984375 C 10.148438 -7.160156 10.144531 -6.171875 9.90625 -5.015625 C 9.582031 -3.367188 8.953125 -2.085938 8.015625 -1.171875 C 7.085938 -0.253906 5.941406 0.203125 4.578125 0.203125 Z M 3.3125 -5.140625 C 3.101562 -4.109375 3.125 -3.304688 3.375 -2.734375 C 3.625 -2.171875 4.085938 -1.890625 4.765625 -1.890625 C 5.460938 -1.890625 6.054688 -2.179688 6.546875 -2.765625 C 7.046875 -3.359375 7.40625 -4.179688 7.625 -5.234375 C 7.832031 -6.273438 7.804688 -7.078125 7.546875 -7.640625 C 7.296875 -8.203125 6.835938 -8.484375 6.171875 -8.484375 C 5.472656 -8.484375 4.875 -8.1875 4.375 -7.59375 C 3.882812 -7.007812 3.53125 -6.191406 3.3125 -5.140625 Z M 3.3125 -5.140625 "/></g></g></g><g fill="#2e2e2e" fill-opacity="1"><g transform="translate(302.711329, 534.493001)"><g><path d="M 0 0 L 0.3125 -1.65625 L 5.296875 -5.34375 C 5.742188 -5.675781 6.082031 -5.988281 6.3125 -6.28125 C 6.539062 -6.570312 6.6875 -6.867188 6.75 -7.171875 C 6.832031 -7.597656 6.765625 -7.9375 6.546875 -8.1875 C 6.335938 -8.445312 6.003906 -8.578125 5.546875 -8.578125 C 5.054688 -8.578125 4.644531 -8.425781 4.3125 -8.125 C 3.988281 -7.832031 3.765625 -7.421875 3.640625 -6.890625 L 1.4375 -6.890625 C 1.695312 -8.066406 2.195312 -8.976562 2.9375 -9.625 C 3.675781 -10.269531 4.609375 -10.59375 5.734375 -10.59375 C 6.515625 -10.59375 7.175781 -10.441406 7.71875 -10.140625 C 8.257812 -9.835938 8.644531 -9.421875 8.875 -8.890625 C 9.101562 -8.367188 9.148438 -7.769531 9.015625 -7.09375 C 8.890625 -6.488281 8.625 -5.914062 8.21875 -5.375 C 7.820312 -4.84375 7.234375 -4.296875 6.453125 -3.734375 L 4.234375 -2.0625 L 8.203125 -2.0625 L 7.78125 0 Z M 0 0 "/></g></g></g><g fill="#2e2e2e" fill-opacity="1"><g transform="translate(312.272948, 534.493001)"><g><path d="M 0.015625 -1.890625 L 0.328125 -3.546875 L 5.046875 -10.375 L 7.65625 -10.375 L 3.171875 -3.90625 L 5.6875 -3.90625 L 6.640625 -6.796875 L 8.5 -6.796875 L 7.9375 -3.9375 L 9.21875 -3.9375 L 8.828125 -1.890625 L 7.515625 -1.890625 L 7.140625 0 L 4.796875 0 L 5.171875 -1.890625 Z M 0.015625 -1.890625 "/></g></g></g></svg>