<svg xmlns="http://www.w3.org/2000/svg" xmlns:xlink="http://www.w3.org/1999/xlink" width="500" zoomAndPan="magnify" viewBox="0 0 810 809.999993" height="500" preserveAspectRatio="xMidYMid meet" version="1.0"><defs><g/></defs><g fill="#000000" fill-opacity="1"><g transform="translate(-1.196645, 459.270008)"><g><path d="M 72.796875 -69.1875 C 80.273438 -65.769531 86.195312 -61.082031 90.5625 -55.125 C 94.9375 -49.164062 97.125 -42.703125 97.125 -35.734375 C 97.125 -29.015625 95.191406 -22.835938 91.328125 -17.203125 C 87.460938 -11.566406 82.234375 -7.003906 75.640625 -3.515625 C 69.054688 -0.0351562 61.710938 1.894531 53.609375 2.28125 C 53.347656 2.28125 53.03125 2.28125 52.65625 2.28125 C 52.394531 2.28125 52.140625 2.28125 51.890625 2.28125 L 51.703125 2.28125 C 51.578125 2.28125 51.257812 2.28125 50.75 2.28125 C 50.113281 2.28125 49.414062 2.28125 48.65625 2.28125 C 48.40625 2.28125 48.15625 2.28125 47.90625 2.28125 C 40.300781 1.894531 33.265625 0.117188 26.796875 -3.046875 C 20.335938 -6.210938 15.144531 -10.457031 11.21875 -15.78125 C 10.957031 -16.03125 10.894531 -16.21875 11.03125 -16.34375 L 14.453125 -21.859375 C 14.578125 -22.109375 14.765625 -22.234375 15.015625 -22.234375 C 15.265625 -22.109375 15.390625 -21.984375 15.390625 -21.859375 C 17.046875 -15.523438 20.910156 -10.203125 26.984375 -5.890625 C 33.066406 -1.585938 40.039062 0.816406 47.90625 1.328125 C 48.15625 1.328125 48.40625 1.328125 48.65625 1.328125 L 48.84375 1.328125 C 49.101562 1.328125 49.390625 1.328125 49.703125 1.328125 C 50.023438 1.328125 50.375 1.328125 50.75 1.328125 C 51.382812 1.328125 52.019531 1.328125 52.65625 1.328125 C 58.988281 1.078125 64.75 -0.40625 69.9375 -3.125 C 75.132812 -5.851562 79.253906 -9.367188 82.296875 -13.671875 C 85.335938 -17.984375 86.859375 -22.800781 86.859375 -28.125 C 86.859375 -33.582031 85.113281 -38.65625 81.625 -43.34375 C 78.144531 -48.03125 73.429688 -51.640625 67.484375 -54.171875 L 31.171875 -69.765625 C 24.203125 -72.804688 18.6875 -77.050781 14.625 -82.5 C 10.570312 -87.945312 8.546875 -93.898438 8.546875 -100.359375 C 8.546875 -106.691406 10.445312 -112.488281 14.25 -117.75 C 18.050781 -123.007812 23.148438 -127.191406 29.546875 -130.296875 C 35.953125 -133.398438 43.019531 -134.953125 50.75 -134.953125 C 51.257812 -134.953125 51.832031 -134.953125 52.46875 -134.953125 C 59.050781 -134.703125 65.160156 -133.304688 70.796875 -130.765625 C 76.441406 -128.234375 81.164062 -124.816406 84.96875 -120.515625 C 85.21875 -120.253906 85.28125 -120 85.15625 -119.75 L 82.296875 -115.1875 C 82.171875 -115.0625 81.984375 -115 81.734375 -115 C 81.609375 -115 81.484375 -115.125 81.359375 -115.375 C 79.453125 -120.570312 75.804688 -124.878906 70.421875 -128.296875 C 65.035156 -131.722656 58.984375 -133.5625 52.265625 -133.8125 C 52.265625 -133.8125 52.203125 -133.8125 52.078125 -133.8125 C 51.441406 -133.9375 51 -134 50.75 -134 C 44.789062 -134 39.40625 -132.828125 34.59375 -130.484375 C 29.78125 -128.140625 25.914062 -124.972656 23 -120.984375 C 20.082031 -116.992188 18.625 -112.65625 18.625 -107.96875 C 18.625 -102.894531 20.207031 -98.265625 23.375 -94.078125 C 26.539062 -89.898438 30.851562 -86.734375 36.3125 -84.578125 Z M 72.796875 -69.1875 "/></g></g></g><g fill="#000000" fill-opacity="1"><g transform="translate(103.342746, 459.270008)"><g><path d="M 118.421875 -132.859375 C 118.796875 -132.859375 118.984375 -132.734375 118.984375 -132.484375 C 118.984375 -132.484375 118.984375 -132.453125 118.984375 -132.390625 C 118.984375 -132.328125 118.984375 -132.296875 118.984375 -132.296875 C 118.984375 -132.046875 118.796875 -131.921875 118.421875 -131.921875 L 117.28125 -131.921875 C 114.875 -131.535156 112.84375 -130.421875 111.1875 -128.578125 C 109.539062 -126.742188 108.71875 -124.5625 108.71875 -122.03125 L 108.71875 -91.046875 C 108.71875 -85.722656 107.003906 -80.96875 103.578125 -76.78125 C 100.160156 -72.601562 95.859375 -69.945312 90.671875 -68.8125 C 95.859375 -67.664062 100.160156 -65 103.578125 -60.8125 C 107.003906 -56.632812 108.71875 -51.820312 108.71875 -46.375 L 108.71875 -22.234375 C 108.71875 -17.296875 107.226562 -12.796875 104.25 -8.734375 C 101.28125 -4.679688 97.382812 -1.894531 92.5625 -0.375 L 118.421875 -0.375 C 118.796875 -0.375 118.984375 -0.25 118.984375 0 C 118.984375 0.375 118.796875 0.5625 118.421875 0.5625 L 85.921875 0.5625 C 85.535156 0.5625 85.34375 0.375 85.34375 0 C 85.34375 -0.25 85.535156 -0.375 85.921875 -0.375 C 86.046875 -0.375 86.203125 -0.40625 86.390625 -0.46875 C 86.578125 -0.53125 86.734375 -0.5625 86.859375 -0.5625 C 89.398438 -0.820312 91.492188 -1.867188 93.140625 -3.703125 C 94.785156 -5.546875 95.609375 -7.734375 95.609375 -10.265625 L 95.609375 -58.359375 C 95.609375 -60.890625 94.785156 -63.101562 93.140625 -65 C 91.492188 -66.90625 89.398438 -67.984375 86.859375 -68.234375 C 86.734375 -68.234375 86.578125 -68.234375 86.390625 -68.234375 C 86.203125 -68.234375 86.046875 -68.234375 85.921875 -68.234375 L 40.484375 -68.234375 C 40.359375 -68.234375 40.195312 -68.234375 40 -68.234375 C 39.8125 -68.234375 39.65625 -68.234375 39.53125 -68.234375 C 37 -67.984375 34.910156 -66.90625 33.265625 -65 C 31.617188 -63.101562 30.796875 -60.890625 30.796875 -58.359375 L 30.796875 -22.234375 C 30.796875 -17.296875 29.304688 -12.828125 26.328125 -8.828125 C 23.347656 -4.835938 19.515625 -2.082031 14.828125 -0.5625 L 40.484375 -0.5625 C 40.867188 -0.5625 41.0625 -0.375 41.0625 0 C 41.0625 0.375 40.867188 0.5625 40.484375 0.5625 L 9.3125 0.5625 C 9.0625 0.5625 8.835938 0.5625 8.640625 0.5625 C 8.453125 0.5625 8.234375 0.5625 7.984375 0.5625 C 7.597656 0.5625 7.40625 0.375 7.40625 0 C 7.40625 -0.375 7.597656 -0.5625 7.984375 -0.5625 L 9.125 -0.5625 C 11.53125 -0.820312 13.554688 -1.867188 15.203125 -3.703125 C 16.847656 -5.546875 17.671875 -7.734375 17.671875 -10.265625 L 17.671875 -46.375 C 17.671875 -51.820312 19.378906 -56.632812 22.796875 -60.8125 C 26.222656 -65 30.535156 -67.664062 35.734375 -68.8125 C 30.535156 -69.945312 26.222656 -72.601562 22.796875 -76.78125 C 19.378906 -80.96875 17.671875 -85.722656 17.671875 -91.046875 L 17.671875 -110.0625 C 17.671875 -115.125 19.160156 -119.648438 22.140625 -123.640625 C 25.117188 -127.640625 29.015625 -130.398438 33.828125 -131.921875 L 7.984375 -131.921875 C 7.597656 -131.921875 7.40625 -132.109375 7.40625 -132.484375 C 7.40625 -132.734375 7.597656 -132.859375 7.984375 -132.859375 L 40.484375 -132.859375 C 40.867188 -132.859375 41.0625 -132.734375 41.0625 -132.484375 C 41.0625 -132.109375 40.867188 -131.921875 40.484375 -131.921875 C 40.359375 -131.921875 40.195312 -131.921875 40 -131.921875 C 39.8125 -131.921875 39.65625 -131.921875 39.53125 -131.921875 C 37 -131.660156 34.910156 -130.578125 33.265625 -128.671875 C 31.617188 -126.773438 30.796875 -124.5625 30.796875 -122.03125 L 30.796875 -79.078125 C 30.796875 -76.535156 31.617188 -74.347656 33.265625 -72.515625 C 34.910156 -70.679688 37 -69.632812 39.53125 -69.375 C 39.65625 -69.375 39.8125 -69.34375 40 -69.28125 C 40.195312 -69.21875 40.359375 -69.1875 40.484375 -69.1875 L 85.921875 -69.1875 C 86.046875 -69.1875 86.203125 -69.21875 86.390625 -69.28125 C 86.578125 -69.34375 86.734375 -69.375 86.859375 -69.375 C 89.398438 -69.632812 91.492188 -70.679688 93.140625 -72.515625 C 94.785156 -74.347656 95.609375 -76.535156 95.609375 -79.078125 L 95.609375 -110.0625 C 95.609375 -115 97.097656 -119.492188 100.078125 -123.546875 C 103.054688 -127.609375 106.890625 -130.398438 111.578125 -131.921875 L 85.921875 -131.921875 C 85.535156 -131.921875 85.34375 -132.046875 85.34375 -132.296875 C 85.34375 -132.671875 85.535156 -132.859375 85.921875 -132.859375 L 117.09375 -132.859375 C 117.34375 -132.859375 117.59375 -132.859375 117.84375 -132.859375 C 118.101562 -132.859375 118.296875 -132.859375 118.421875 -132.859375 Z M 118.421875 -132.859375 "/></g></g></g><g fill="#000000" fill-opacity="1"><g transform="translate(229.930463, 459.270008)"><g><path d="M 28.890625 -114.8125 C 35.609375 -121.519531 43.148438 -126.550781 51.515625 -129.90625 C 59.878906 -133.269531 68.523438 -134.953125 77.453125 -134.953125 C 86.390625 -134.953125 95.039062 -133.269531 103.40625 -129.90625 C 111.769531 -126.550781 119.304688 -121.519531 126.015625 -114.8125 C 132.484375 -108.34375 137.457031 -100.894531 140.9375 -92.46875 C 144.425781 -84.039062 146.171875 -75.265625 146.171875 -66.140625 C 146.171875 -57.023438 144.425781 -48.253906 140.9375 -39.828125 C 137.457031 -31.398438 132.484375 -24.015625 126.015625 -17.671875 C 119.554688 -11.210938 112.113281 -6.238281 103.6875 -2.75 C 95.257812 0.726562 86.484375 2.46875 77.359375 2.46875 C 68.234375 2.46875 59.488281 0.726562 51.125 -2.75 C 42.757812 -6.238281 35.347656 -11.210938 28.890625 -17.671875 C 22.171875 -24.390625 17.132812 -31.929688 13.78125 -40.296875 C 10.425781 -48.660156 8.75 -57.304688 8.75 -66.234375 C 8.75 -75.171875 10.425781 -83.820312 13.78125 -92.1875 C 17.132812 -100.550781 22.171875 -108.09375 28.890625 -114.8125 Z M 29.46875 -114.046875 C 24.394531 -108.972656 20.84375 -102.921875 18.8125 -95.890625 C 16.789062 -88.859375 16.253906 -81.445312 17.203125 -73.65625 C 18.148438 -65.863281 20.554688 -58.101562 24.421875 -50.375 C 28.285156 -42.644531 33.515625 -35.484375 40.109375 -28.890625 C 46.691406 -22.296875 53.847656 -17.066406 61.578125 -13.203125 C 69.316406 -9.335938 77.082031 -6.929688 84.875 -5.984375 C 92.664062 -5.035156 100.078125 -5.570312 107.109375 -7.59375 C 114.140625 -9.625 120.191406 -13.175781 125.265625 -18.25 C 130.328125 -23.3125 133.90625 -29.328125 136 -36.296875 C 138.09375 -43.273438 138.695312 -50.753906 137.8125 -58.734375 C 136.789062 -66.847656 134.316406 -74.769531 130.390625 -82.5 C 126.460938 -90.226562 121.269531 -97.257812 114.8125 -103.59375 C 107.207031 -111.320312 98.8125 -117.148438 89.625 -121.078125 C 80.4375 -125.003906 71.46875 -126.96875 62.71875 -126.96875 C 56.382812 -126.96875 50.363281 -125.890625 44.65625 -123.734375 C 38.957031 -121.585938 33.894531 -118.359375 29.46875 -114.046875 Z M 29.46875 -114.046875 "/></g></g></g><g fill="#000000" fill-opacity="1"><g transform="translate(385.02893, 459.270008)"><g><path d="M 69.375 -132.859375 C 75.84375 -132.859375 81.703125 -131.304688 86.953125 -128.203125 C 92.210938 -125.097656 96.425781 -120.914062 99.59375 -115.65625 C 102.769531 -110.40625 104.359375 -104.546875 104.359375 -98.078125 C 104.359375 -91.617188 102.769531 -85.757812 99.59375 -80.5 C 96.425781 -75.238281 92.210938 -71.023438 86.953125 -67.859375 C 81.703125 -64.691406 75.90625 -63.109375 69.5625 -63.109375 L 62.15625 -63.109375 C 56.457031 -63.109375 51.289062 -61.742188 46.65625 -59.015625 C 42.03125 -56.296875 38.320312 -52.625 35.53125 -48 C 32.75 -43.375 31.359375 -38.207031 31.359375 -32.5 L 31.359375 -22.234375 C 31.359375 -17.296875 29.867188 -12.796875 26.890625 -8.734375 C 23.910156 -4.679688 20.015625 -1.894531 15.203125 -0.375 L 41.0625 -0.5625 C 41.4375 -0.5625 41.625 -0.375 41.625 0 C 41.625 0.125 41.5625 0.25 41.4375 0.375 C 41.4375 0.5 41.3125 0.5625 41.0625 0.5625 L 8.546875 0.5625 C 8.421875 0.5625 8.296875 0.5 8.171875 0.375 C 8.046875 0.25 7.984375 0.125 7.984375 0 C 7.984375 -0.125 7.984375 -0.1875 7.984375 -0.1875 C 7.984375 -0.1875 8.046875 -0.1875 8.171875 -0.1875 C 8.171875 -0.1875 8.171875 -0.25 8.171875 -0.375 C 8.171875 -0.25 8.171875 -0.25 8.171875 -0.375 C 8.171875 -0.375 8.234375 -0.375 8.359375 -0.375 C 8.359375 -0.375 8.421875 -0.375 8.546875 -0.375 C 11.210938 -0.375 13.492188 -1.351562 15.390625 -3.3125 C 17.296875 -5.28125 18.25 -7.597656 18.25 -10.265625 L 18.25 -110.0625 C 18.25 -115.125 19.738281 -119.648438 22.71875 -123.640625 C 25.695312 -127.640625 29.59375 -130.398438 34.40625 -131.921875 L 8.546875 -131.921875 C 8.171875 -131.921875 7.984375 -132.109375 7.984375 -132.484375 C 7.984375 -132.734375 8.171875 -132.859375 8.546875 -132.859375 Z M 31.359375 -40.484375 C 33.140625 -47.453125 36.878906 -53.15625 42.578125 -57.59375 C 48.273438 -62.03125 54.738281 -64.25 61.96875 -64.25 C 66.90625 -64.25 71.367188 -65.769531 75.359375 -68.8125 C 79.359375 -71.851562 82.5625 -75.9375 84.96875 -81.0625 C 87.375 -86.195312 88.578125 -91.867188 88.578125 -98.078125 C 88.578125 -104.285156 87.375 -109.957031 84.96875 -115.09375 C 82.5625 -120.226562 79.359375 -124.316406 75.359375 -127.359375 C 71.367188 -130.398438 66.90625 -131.921875 61.96875 -131.921875 L 41.0625 -131.921875 C 40.925781 -131.921875 40.765625 -131.921875 40.578125 -131.921875 C 40.390625 -131.921875 40.234375 -131.921875 40.109375 -131.921875 C 37.578125 -131.660156 35.484375 -130.578125 33.828125 -128.671875 C 32.179688 -126.773438 31.359375 -124.5625 31.359375 -122.03125 Z M 31.359375 -40.484375 "/></g></g></g><g fill="#000000" fill-opacity="1"><g transform="translate(495.650613, 459.270008)"><g><path d="M 69.375 -132.859375 C 75.84375 -132.859375 81.703125 -131.304688 86.953125 -128.203125 C 92.210938 -125.097656 96.425781 -120.914062 99.59375 -115.65625 C 102.769531 -110.40625 104.359375 -104.546875 104.359375 -98.078125 C 104.359375 -91.617188 102.769531 -85.757812 99.59375 -80.5 C 96.425781 -75.238281 92.210938 -71.023438 86.953125 -67.859375 C 81.703125 -64.691406 75.90625 -63.109375 69.5625 -63.109375 L 62.15625 -63.109375 C 56.457031 -63.109375 51.289062 -61.742188 46.65625 -59.015625 C 42.03125 -56.296875 38.320312 -52.625 35.53125 -48 C 32.75 -43.375 31.359375 -38.207031 31.359375 -32.5 L 31.359375 -22.234375 C 31.359375 -17.296875 29.867188 -12.796875 26.890625 -8.734375 C 23.910156 -4.679688 20.015625 -1.894531 15.203125 -0.375 L 41.0625 -0.5625 C 41.4375 -0.5625 41.625 -0.375 41.625 0 C 41.625 0.125 41.5625 0.25 41.4375 0.375 C 41.4375 0.5 41.3125 0.5625 41.0625 0.5625 L 8.546875 0.5625 C 8.421875 0.5625 8.296875 0.5 8.171875 0.375 C 8.046875 0.25 7.984375 0.125 7.984375 0 C 7.984375 -0.125 7.984375 -0.1875 7.984375 -0.1875 C 7.984375 -0.1875 8.046875 -0.1875 8.171875 -0.1875 C 8.171875 -0.1875 8.171875 -0.25 8.171875 -0.375 C 8.171875 -0.25 8.171875 -0.25 8.171875 -0.375 C 8.171875 -0.375 8.234375 -0.375 8.359375 -0.375 C 8.359375 -0.375 8.421875 -0.375 8.546875 -0.375 C 11.210938 -0.375 13.492188 -1.351562 15.390625 -3.3125 C 17.296875 -5.28125 18.25 -7.597656 18.25 -10.265625 L 18.25 -110.0625 C 18.25 -115.125 19.738281 -119.648438 22.71875 -123.640625 C 25.695312 -127.640625 29.59375 -130.398438 34.40625 -131.921875 L 8.546875 -131.921875 C 8.171875 -131.921875 7.984375 -132.109375 7.984375 -132.484375 C 7.984375 -132.734375 8.171875 -132.859375 8.546875 -132.859375 Z M 31.359375 -40.484375 C 33.140625 -47.453125 36.878906 -53.15625 42.578125 -57.59375 C 48.273438 -62.03125 54.738281 -64.25 61.96875 -64.25 C 66.90625 -64.25 71.367188 -65.769531 75.359375 -68.8125 C 79.359375 -71.851562 82.5625 -75.9375 84.96875 -81.0625 C 87.375 -86.195312 88.578125 -91.867188 88.578125 -98.078125 C 88.578125 -104.285156 87.375 -109.957031 84.96875 -115.09375 C 82.5625 -120.226562 79.359375 -124.316406 75.359375 -127.359375 C 71.367188 -130.398438 66.90625 -131.921875 61.96875 -131.921875 L 41.0625 -131.921875 C 40.925781 -131.921875 40.765625 -131.921875 40.578125 -131.921875 C 40.390625 -131.921875 40.234375 -131.921875 40.109375 -131.921875 C 37.578125 -131.660156 35.484375 -130.578125 33.828125 -128.671875 C 32.179688 -126.773438 31.359375 -124.5625 31.359375 -122.03125 Z M 31.359375 -40.484375 "/></g></g></g><g fill="#000000" fill-opacity="1"><g transform="translate(606.272322, 459.270008)"><g><path d="M 31.359375 -22.234375 C 31.359375 -17.296875 29.867188 -12.796875 26.890625 -8.734375 C 23.910156 -4.679688 20.015625 -1.894531 15.203125 -0.375 L 41.0625 -0.5625 C 41.4375 -0.5625 41.625 -0.375 41.625 0 C 41.625 0.125 41.5625 0.25 41.4375 0.375 C 41.4375 0.5 41.375 0.5625 41.25 0.5625 L 8.546875 0.5625 C 8.421875 0.5625 8.296875 0.5 8.171875 0.375 C 8.046875 0.25 7.984375 0.125 7.984375 0 C 7.984375 -0.125 8.046875 -0.1875 8.171875 -0.1875 L 8.171875 -0.375 C 8.171875 -0.375 8.234375 -0.375 8.359375 -0.375 C 8.359375 -0.375 8.421875 -0.375 8.546875 -0.375 C 11.210938 -0.375 13.492188 -1.351562 15.390625 -3.3125 C 17.296875 -5.28125 18.25 -7.597656 18.25 -10.265625 L 18.25 -110.0625 C 18.25 -115.125 19.738281 -119.648438 22.71875 -123.640625 C 25.695312 -127.640625 29.59375 -130.398438 34.40625 -131.921875 L 8.546875 -131.921875 C 8.171875 -131.921875 7.984375 -132.109375 7.984375 -132.484375 C 7.984375 -132.734375 8.171875 -132.859375 8.546875 -132.859375 L 41.0625 -132.859375 C 41.4375 -132.859375 41.625 -132.734375 41.625 -132.484375 C 41.625 -132.109375 41.4375 -131.921875 41.0625 -131.921875 C 40.925781 -131.921875 40.796875 -131.921875 40.671875 -131.921875 C 40.546875 -131.921875 40.359375 -131.921875 40.109375 -131.921875 C 37.578125 -131.660156 35.484375 -130.578125 33.828125 -128.671875 C 32.179688 -126.773438 31.359375 -124.5625 31.359375 -122.03125 Z M 31.359375 -22.234375 "/></g></g></g><g fill="#000000" fill-opacity="1"><g transform="translate(656.071107, 459.270008)"><g><path d="M 28.890625 -114.8125 C 35.609375 -121.519531 43.148438 -126.550781 51.515625 -129.90625 C 59.878906 -133.269531 68.523438 -134.953125 77.453125 -134.953125 C 86.390625 -134.953125 95.039062 -133.269531 103.40625 -129.90625 C 111.769531 -126.550781 119.304688 -121.519531 126.015625 -114.8125 C 132.484375 -108.34375 137.457031 -100.894531 140.9375 -92.46875 C 144.425781 -84.039062 146.171875 -75.265625 146.171875 -66.140625 C 146.171875 -57.023438 144.425781 -48.253906 140.9375 -39.828125 C 137.457031 -31.398438 132.484375 -24.015625 126.015625 -17.671875 C 119.554688 -11.210938 112.113281 -6.238281 103.6875 -2.75 C 95.257812 0.726562 86.484375 2.46875 77.359375 2.46875 C 68.234375 2.46875 59.488281 0.726562 51.125 -2.75 C 42.757812 -6.238281 35.347656 -11.210938 28.890625 -17.671875 C 22.171875 -24.390625 17.132812 -31.929688 13.78125 -40.296875 C 10.425781 -48.660156 8.75 -57.304688 8.75 -66.234375 C 8.75 -75.171875 10.425781 -83.820312 13.78125 -92.1875 C 17.132812 -100.550781 22.171875 -108.09375 28.890625 -114.8125 Z M 29.46875 -114.046875 C 24.394531 -108.972656 20.84375 -102.921875 18.8125 -95.890625 C 16.789062 -88.859375 16.253906 -81.445312 17.203125 -73.65625 C 18.148438 -65.863281 20.554688 -58.101562 24.421875 -50.375 C 28.285156 -42.644531 33.515625 -35.484375 40.109375 -28.890625 C 46.691406 -22.296875 53.847656 -17.066406 61.578125 -13.203125 C 69.316406 -9.335938 77.082031 -6.929688 84.875 -5.984375 C 92.664062 -5.035156 100.078125 -5.570312 107.109375 -7.59375 C 114.140625 -9.625 120.191406 -13.175781 125.265625 -18.25 C 130.328125 -23.3125 133.90625 -29.328125 136 -36.296875 C 138.09375 -43.273438 138.695312 -50.753906 137.8125 -58.734375 C 136.789062 -66.847656 134.316406 -74.769531 130.390625 -82.5 C 126.460938 -90.226562 121.269531 -97.257812 114.8125 -103.59375 C 107.207031 -111.320312 98.8125 -117.148438 89.625 -121.078125 C 80.4375 -125.003906 71.46875 -126.96875 62.71875 -126.96875 C 56.382812 -126.96875 50.363281 -125.890625 44.65625 -123.734375 C 38.957031 -121.585938 33.894531 -118.359375 29.46875 -114.046875 Z M 29.46875 -114.046875 "/></g></g></g></svg>